<?xml version="1.0" encoding="UTF-8" standalone="no"?>
<!-- Created with Inkscape (http://www.inkscape.org/) -->

<svg
   version="1.1"
   id="svg9"
   width="1964.7384"
   height="1325.0984"
   viewBox="0 0 1964.7384 1325.0984"
   sodipodi:docname="catface-color.svg"
   inkscape:version="1.2.2 (732a01da63, 2022-12-09)"
   xmlns:inkscape="http://www.inkscape.org/namespaces/inkscape"
   xmlns:sodipodi="http://sodipodi.sourceforge.net/DTD/sodipodi-0.dtd"
   xmlns="http://www.w3.org/2000/svg"
   xmlns:svg="http://www.w3.org/2000/svg">
  <defs
     id="defs13">
    <inkscape:path-effect
       effect="fill_between_many"
       method="originald"
       linkedpaths="#path177,0,1|"
       id="path-effect214" />
  </defs>
  <sodipodi:namedview
     id="namedview11"
     pagecolor="#505050"
     bordercolor="#eeeeee"
     borderopacity="1"
     inkscape:showpageshadow="0"
     inkscape:pageopacity="0"
     inkscape:pagecheckerboard="0"
     inkscape:deskcolor="#505050"
     showgrid="false"
     inkscape:zoom="0.4935"
     inkscape:cx="938.19656"
     inkscape:cy="913.88045"
     inkscape:window-width="2560"
     inkscape:window-height="1369"
     inkscape:window-x="-8"
     inkscape:window-y="-8"
     inkscape:window-maximized="1"
     inkscape:current-layer="g15" />
  <g
     inkscape:groupmode="layer"
     inkscape:label="Image"
     id="g15"
     transform="translate(-13.07052,-12.46252)">
    <path
       inkscape:original-d="M 0,0"
       inkscape:path-effect="#path-effect214"
       d="M 948.04836,1336.3699 C 738.14363,1324.3997 546.73681,1250.2698 410.11648,1128.0345 299.20429,1028.8005 234.67542,905.83284 224.28305,773.90614 c -0.74745,-9.4886 -1.08584,-28.1561 -0.80503,-44.4105 l 0.48444,-28.0415 -2.82478,0.5524 c -1.55363,0.3038 -7.78522,1.1055 -13.84798,1.7816 -45.42447,5.0654 -106.31474,23.3937 -166.174642,50.0193 -3.486082,1.5507 -6.338335,2.6215 -6.338335,2.3797 0,-1.0741 20.603354,-16.7186 32.050181,-24.3364 15.172877,-10.0976 45.766796,-25.424 61.560786,-30.8397 25.15132,-8.6243 56.30879,-14.6261 81.4223,-15.684 8.66147,-0.3649 15.93555,-0.9667 16.16462,-1.3374 0.22907,-0.3706 0.948,-4.6345 1.59761,-9.4751 0.6496,-4.8407 2.75774,-16.86326 4.68471,-26.71689 1.92699,-9.85353 3.20539,-18.21374 2.84089,-18.57828 -1.42909,-1.42904 -60.29444,-1.82213 -79.62341,-0.53154 -46.09613,3.07757 -106.679399,10.9274 -136.552006,17.69301 -2.960267,0.67053 -5.573339,1.02802 -5.806843,0.79443 -1.487061,-1.48703 34.189557,-17.28051 56.384227,-24.96025 36.487342,-12.62553 66.648682,-18.35814 107.476132,-20.42763 11.78726,-0.59757 43.44985,0.64353 59.17548,2.31938 l 6.8153,0.72632 1.86088,-6.48759 c 9.68702,-33.77209 33.24347,-83.65822 57.76705,-122.33486 1.30911,-2.06464 0.99971,-2.99566 -2.93022,-8.81856 -8.7932,-13.02864 -17.25945,-28.5537 -28.65837,-52.55252 -62.33731,-131.24282 -95.63057,-251.50509 -88.56835,-319.927752 3.00408,-29.10529 10.88519,-48.88418 25.25961,-63.39299 19.87596,-20.06183 46.09046,-23.8295401 88.12084,-12.66526 68.87606,18.29512 185.06343,96.219832 293.73836,197.004892 l 11.88747,11.02441 12.38777,-5.51954 c 89.85685,-40.03768 192.55879,-66.08879 298.39124,-75.68941 65.36029,-5.92914 144.15822,-4.90139 208.84482,2.72391 91.0781,10.73637 179.0995,33.62163 258.7806,67.28194 l 15.4908,6.54381 11.1486,-10.24585 c 90.2619,-82.95297 185.728,-150.758822 253.6589,-180.164052 46.2139,-20.0046 83.682,-24.3136501 107.8703,-12.40574 15.9955,7.87452 28.1716,23.15336 35.1758,44.13927 4.9256,14.75833 6.7079,28.23969 6.6964,50.655202 -0.026,51.64513 -14.3356,114.5501 -44.508,195.66163 -18.7682,50.45415 -49.8734,119.6377 -64.9382,144.43514 -2.4591,4.0475 -4.4709,7.77962 -4.4709,8.29364 0,0.5139 3.6513,6.53973 8.1139,13.39076 22.6816,34.81984 43.6111,78.36907 55.9622,116.44373 l 3.6957,11.39269 5.8119,-0.7262 c 11.5884,-1.4478 58.8006,-0.80845 74.0323,1.00255 38.6116,4.59105 77.8853,15.76669 114.8266,32.67495 12.0078,5.49606 22.294,11.30793 18.6489,10.53707 -35.4859,-7.50514 -86.7607,-14.4255 -131.7272,-17.77875 -25.6145,-1.9101 -72.8088,-2.23761 -73.8749,-0.51269 -0.3853,0.62358 0.313,5.46001 1.5519,10.74761 1.2391,5.28771 3.2642,16.06245 4.5004,23.94404 1.2363,7.88157 2.5153,15.94227 2.8423,17.91267 0.5824,3.5099 0.7116,3.5826 6.3647,3.5826 17.0343,0 56.4684,7.2844 78.0197,14.4121 33.364,11.0346 70.9193,32.2181 94.9647,53.5658 4.7688,4.2339 4.5566,4.4973 -1.2415,1.5394 -15.3065,-7.8088 -65.4278,-26.443 -94.3879,-35.0917 -26.9062,-8.0354 -43.248,-11.4935 -76.3549,-16.158 l -4.7042,-0.6627 0.7183,22.8892 c 4.8877,155.7436 -68.9599,305.40816 -207.3646,420.25966 -126.0065,104.5631 -297.1602,171.3223 -481.7134,187.8939 -43.1954,3.8787 -105.882,5.0409 -146.60864,2.7184 z"
       id="path216"
       class="UnoptimicedTransforms"
       style="display:inline;fill:#260f0f;fill-opacity:1" />
    <path
       style="fill:#000000;stroke-width:1.10232"
       d="M 948.04836,1336.3699 C 738.14363,1324.3997 546.73681,1250.2698 410.11648,1128.0345 299.20429,1028.8005 234.67542,905.83284 224.28305,773.90614 c -0.74745,-9.4886 -1.08584,-28.1561 -0.80503,-44.4105 l 0.48444,-28.0415 -2.82478,0.5524 c -1.55363,0.3038 -7.78522,1.1055 -13.84798,1.7816 -45.42447,5.0654 -106.31474,23.3937 -166.174642,50.0193 -3.486082,1.5507 -6.338335,2.6215 -6.338335,2.3797 0,-1.0741 20.603354,-16.7186 32.050181,-24.3364 15.172877,-10.0976 45.766796,-25.424 61.560786,-30.8397 25.15132,-8.6243 56.30879,-14.6261 81.4223,-15.684 8.66147,-0.3649 15.93555,-0.9667 16.16462,-1.3374 0.22907,-0.3706 0.948,-4.6345 1.59761,-9.4751 0.6496,-4.8407 2.75774,-16.86326 4.68471,-26.71689 1.92699,-9.85353 3.20539,-18.21374 2.84089,-18.57828 -1.42909,-1.42904 -60.29444,-1.82213 -79.62341,-0.53154 -46.09613,3.07757 -106.679399,10.9274 -136.552006,17.69301 -2.960267,0.67053 -5.573339,1.02802 -5.806843,0.79443 -1.487061,-1.48703 34.189557,-17.28051 56.384227,-24.96025 36.487342,-12.62553 66.648682,-18.35814 107.476132,-20.42763 11.78726,-0.59757 43.44985,0.64353 59.17548,2.31938 l 6.8153,0.72632 1.86088,-6.48759 c 9.68702,-33.77209 33.24347,-83.65822 57.76705,-122.33486 1.30911,-2.06464 0.99971,-2.99566 -2.93022,-8.81856 -8.7932,-13.02864 -17.25945,-28.5537 -28.65837,-52.55252 -62.33731,-131.24282 -95.63057,-251.50509 -88.56835,-319.927752 3.00408,-29.10529 10.88519,-48.88418 25.25961,-63.39299 19.87596,-20.06183 46.09046,-23.8295401 88.12084,-12.66526 68.87606,18.29512 185.06343,96.219832 293.73836,197.004892 l 11.88747,11.02441 12.38777,-5.51954 c 89.85685,-40.03768 192.55879,-66.08879 298.39124,-75.68941 65.36029,-5.92914 144.15822,-4.90139 208.84482,2.72391 91.0781,10.73637 179.0995,33.62163 258.7806,67.28194 l 15.4908,6.54381 11.1486,-10.24585 c 90.2619,-82.95297 185.728,-150.758822 253.6589,-180.164052 46.2139,-20.0046 83.682,-24.3136501 107.8703,-12.40574 15.9955,7.87452 28.1716,23.15336 35.1758,44.13927 4.9256,14.75833 6.7079,28.23969 6.6964,50.655202 -0.026,51.64513 -14.3356,114.5501 -44.508,195.66163 -18.7682,50.45415 -49.8734,119.6377 -64.9382,144.43514 -2.4591,4.0475 -4.4709,7.77962 -4.4709,8.29364 0,0.5139 3.6513,6.53973 8.1139,13.39076 22.6816,34.81984 43.6111,78.36907 55.9622,116.44373 l 3.6957,11.39269 5.8119,-0.7262 c 11.5884,-1.4478 58.8006,-0.80845 74.0323,1.00255 38.6116,4.59105 77.8853,15.76669 114.8266,32.67495 12.0078,5.49606 22.294,11.30793 18.6489,10.53707 -35.4859,-7.50514 -86.7607,-14.4255 -131.7272,-17.77875 -25.6145,-1.9101 -72.8088,-2.23761 -73.8749,-0.51269 -0.3853,0.62358 0.313,5.46001 1.5519,10.74761 1.2391,5.28771 3.2642,16.06245 4.5004,23.94404 1.2363,7.88157 2.5153,15.94227 2.8423,17.91267 0.5824,3.5099 0.7116,3.5826 6.3647,3.5826 17.0343,0 56.4684,7.2844 78.0197,14.4121 33.364,11.0346 70.9193,32.2181 94.9647,53.5658 4.7688,4.2339 4.5566,4.4973 -1.2415,1.5394 -15.3065,-7.8088 -65.4278,-26.443 -94.3879,-35.0917 -26.9062,-8.0354 -43.248,-11.4935 -76.3549,-16.158 l -4.7042,-0.6627 0.7183,22.8892 c 4.8877,155.7436 -68.9599,305.40816 -207.3646,420.25966 -126.0065,104.5631 -297.1602,171.3223 -481.7134,187.8939 -43.1954,3.8787 -105.882,5.0409 -146.60864,2.7184 z m 80.04934,-133.7882 c 20.5651,-3.5937 38.191,-12.4062 54.2552,-27.126 l 7.2945,-6.6841 0.3001,-19.6803 0.3002,-19.6803 11.8921,7.1788 c 9.7371,5.8777 12.1859,6.9349 13.5129,5.8335 2.5417,-2.1093 20.4087,-29.05 27.7517,-41.8452 25.4417,-44.3317 42.8179,-94.5592 51.4819,-148.81306 3.0517,-19.1093 6.1423,-49.5497 6.1485,-60.5585 0,-8.0506 0.8519,-9.8991 9.7621,-21.3022 2.9551,-3.7818 6.2458,-8.5849 7.3127,-10.6736 2.0628,-4.0386 2.7271,-12.9423 1.3426,-17.9933 -0.8271,-3.0173 -0.9685,-2.9173 -12.6602,8.9645 -14.3977,14.6312 -26.8306,23.9254 -41.5134,31.0333 -19.2417,9.3147 -35.9824,13.2126 -56.7115,13.2048 -37.4264,-0.014 -68.8477,-13.5548 -97.8851,-42.1823 l -10.1194,-9.9766 -10.82472,8.2269 c -38.09675,28.9544 -74.02877,43.3378 -98.8453,39.5676 -22.59195,-3.4323 -66.68237,-22.2727 -108.04733,-46.1701 -5.37685,-3.1064 -10.2667,-5.3447 -10.86636,-4.9741 -1.38638,0.8569 -0.21583,8.4252 1.9512,12.6156 2.79697,5.4089 14.75369,17.3384 27.03498,26.9737 l 11.75573,9.2229 0.76297,8.0353 c 4.48433,47.2271 18.44896,107.38336 34.49148,148.58086 12.66544,32.5252 34.92111,72.3885 51.2299,91.7607 l 2.54579,3.024 9.64564,-6.0554 c 5.30511,-3.3304 10.05198,-6.0554 10.54862,-6.0554 0.49664,0 1.79355,9.0528 2.88203,20.1173 2.28519,23.2292 1.78854,22.2534 17.19859,33.7968 25.47162,19.0801 56.31805,26.8333 86.07188,21.6339 z"
       id="path177"
       class="UnoptimicedTransforms" />
  </g>
</svg>
