<?xml version="1.0" encoding="UTF-8" standalone="no"?>
<!-- Created with Inkscape (http://www.inkscape.org/) -->

<svg
   version="1.1"
   id="svg184"
   width="827.31787"
   height="1300.079"
   viewBox="0 0 827.31787 1300.079"
   sodipodi:docname="catsil.svg"
   inkscape:version="1.2.2 (732a01da63, 2022-12-09)"
   xmlns:inkscape="http://www.inkscape.org/namespaces/inkscape"
   xmlns:sodipodi="http://sodipodi.sourceforge.net/DTD/sodipodi-0.dtd"
   xmlns="http://www.w3.org/2000/svg"
   xmlns:svg="http://www.w3.org/2000/svg">
  <defs
     id="defs188" />
  <sodipodi:namedview
     id="namedview186"
     pagecolor="#505050"
     bordercolor="#eeeeee"
     borderopacity="1"
     inkscape:showpageshadow="0"
     inkscape:pageopacity="0"
     inkscape:pagecheckerboard="0"
     inkscape:deskcolor="#505050"
     showgrid="false"
     inkscape:zoom="0.58485194"
     inkscape:cx="765.15093"
     inkscape:cy="870.30574"
     inkscape:window-width="2560"
     inkscape:window-height="1369"
     inkscape:window-x="-8"
     inkscape:window-y="-8"
     inkscape:window-maximized="1"
     inkscape:current-layer="g190" />
  <g
     inkscape:groupmode="layer"
     inkscape:label="Image"
     id="g190"
     transform="translate(-5.8261584,-8.3074767)">
    <path
       style="fill:#000000"
       d="m 96.948684,1307.3167 c -2.57017,-0.6222 -5.00767,-1.4687 -5.41667,-1.8812 -0.409,-0.4125 -1.56863,-0.75 -2.57697,-0.75 -1.00833,0 -1.83333,-0.353 -1.83333,-0.7844 0,-0.4314 -1.4625,-1.6296 -3.25,-2.6626 -1.7875,-1.0331 -6.5523,-5.2172 -10.58845,-9.2981 -5.39876,-5.4586 -8.30627,-9.4465 -11,-15.0874 l -3.66155,-7.6675 0.0485,-15 c 0.0365,-11.2869 0.45589,-16.1439 1.6943,-19.6209 2.13434,-5.9925 9.03821,-20.2818 10.00722,-20.7124 0.4125,-0.1834 0.75,-0.886 0.75,-1.5615 0,-0.6754 0.79973,-2.1004 1.77718,-3.1666 0.97745,-1.0662 2.8459,-3.5136 4.15212,-5.4386 4.93728,-7.2762 25.279896,-26.2161 33.070696,-30.7904 2.475,-1.4531 5.09464,-3.2198 5.82143,-3.9258 0.72678,-0.7061 1.72739,-1.2838 2.22356,-1.2838 0.49618,0 3.95154,-1.4745 7.67858,-3.2766 3.72703,-1.8021 8.80143,-3.9081 11.27643,-4.6801 2.475,-0.7719 4.95,-1.7075 5.5,-2.079 0.55,-0.3715 1.9,-0.9266 3,-1.2336 1.1,-0.3069 5.825,-1.6537 10.5,-2.9928 15.38397,-4.4066 25.37026,-6.1926 54,-9.658 19.19064,-2.3229 44.70265,-3.3862 83.5,-3.4804 41.90712,-0.1017 63.40902,0.965 83,4.1174 5.5,0.885 12.7,1.9344 16,2.3319 9.73519,1.1726 12.27189,1.6236 37,6.5788 14.10769,2.8269 19.81923,4.0427 26,5.5344 2.2,0.5309 6.475,1.3541 9.5,1.8292 3.025,0.4752 7.075,1.3992 9,2.0535 1.925,0.6542 5.75,1.5252 8.5,1.9356 2.75,0.4104 8.825,1.4982 13.5,2.4173 4.675,0.9192 10.8625,2.1058 13.75,2.6368 4.83282,0.8889 9.15818,1.7067 21.25,4.0181 2.475,0.4731 7.65,1.3047 11.5,1.848 3.85,0.5433 12.4,1.8004 19,2.7937 17.71038,2.6651 76.94128,2.6595 86.49998,-0.01 3.575,-0.9978 8.3,-2.288 10.5,-2.8671 16.1361,-4.2478 30.0323,-11.3393 38.8951,-19.8488 4.0012,-3.8417 7.9109,-8.219 8.6883,-9.7274 0.7774,-1.5084 1.6391,-2.9676 1.915,-3.2426 0.2759,-0.275 1.5153,-2.525 2.7544,-5 4.6605,-9.3096 2.2074,-27.5361 -4.5462,-33.7777 -8.1124,-7.4973 -10.4159,-9.3547 -12.9504,-10.4422 -1.5159,-0.6504 -3.8812,-1.9152 -5.2562,-2.8107 -8.2712,-5.3865 -25.4429,-9.2037 -49,-10.8924 -13.1852,-0.9453 -48.3633,0.6608 -69,3.1501 -6.49925,0.784 -22.69267,1.2562 -42.49998,1.2391 -29.10141,-0.025 -45.09674,-0.7407 -77,-3.4456 -48.61711,-4.1219 -74.19531,-5.36 -96.5,-4.6711 -10.175,0.3143 -22.1,1.2693 -26.5,2.1223 -4.4,0.8529 -10.36901,1.9732 -13.26448,2.4894 -2.89546,0.5163 -5.60071,1.1465 -6.01168,1.4005 -0.41096,0.2539 -7.78095,0.9937 -16.37776,1.6438 -17.94192,1.3568 -28.04238,0.3767 -33.23464,-3.2248 -4.27868,-2.9662 -13.61146,-12.8976 -13.61146,-14.4829 0,-0.7128 -0.34015,-1.2961 -0.75589,-1.2961 -1.03129,0 -3.15922,-5.3307 -6.29315,-15.765 -1.09114,-3.6329 -1.58999,-4.172 -3.36597,-3.6376 -1.14675,0.3451 -2.51249,1.0268 -3.03499,1.515 -0.5225,0.4882 -1.5399,0.8876 -2.2609,0.8876 -0.72099,0 -3.21849,0.8607 -5.55,1.9126 -2.3315,1.0519 -6.0391,2.4621 -8.2391,3.1337 -2.2,0.6716 -5.25723,1.8577 -6.79385,2.6358 -1.53662,0.778 -7.38662,2.6304 -13,4.1163 -9.70636,2.5693 -11.35693,2.7016 -33.70615,2.7016 -15.95825,0 -25.58601,-0.4364 -30,-1.3598 -7.02925,-1.4704 -17.44238,-4.6544 -20.23643,-6.1874 -0.95504,-0.5241 -2.41754,-0.9528 -3.25,-0.9528 -0.83246,0 -1.51357,-0.45 -1.51357,-1 0,-0.55 -0.61814,-1 -1.37365,-1 -2.82357,0 -14.168596,-11.7596 -17.411826,-18.0481 -2.70499,-5.2449 -3.21452,-7.3246 -3.21452,-13.1209 0,-5.6566 0.53304,-7.944 2.98163,-12.7946 3.63224,-7.1954 7.24376,-9.96361 17.018366,-13.04441 4.125,-1.3001 7.95,-2.6737 8.5,-3.0523 0.55,-0.3786 2.35,-0.9423 4,-1.2525 1.65,-0.3103 5.025,-1.071 7.5,-1.6906 2.475,-0.6195 6.075,-1.4365 8,-1.8156 5.14653,-1.0134 9.77519,-3.8424 11.36755,-6.9479 3.32518,-6.4849 4.0695,-23.1328 4.10135,-91.7331 0.0353,-76.0755 -1.18806,-102.5808 -6.16179,-133.5 -0.84051,-5.225 -1.91686,-12.425 -2.3919,-16 -0.47505,-3.575 -1.28366,-8.525 -1.79692,-11 -0.51326,-2.475 -1.41453,-6.975 -2.00282,-10 -1.4671,-7.54389 -3.53367,-15.13166 -7.62594,-28 -5.6273,-17.69533 -9.54383,-29.1447 -11.37426,-33.25091 -2.33512,-5.23837 -4.84063,-11.81681 -6.76002,-17.74909 -0.80079,-2.475 -1.82309,-5.4 -2.27179,-6.5 -0.44869,-1.1 -2.27891,-5.6 -4.06716,-10 -1.78824,-4.4 -4.09846,-9.9076 -5.133826,-12.2391 -1.03536,-2.33151 -1.88247,-4.82901 -1.88247,-5.55 0,-0.721 -0.35814,-1.7384 -0.79586,-2.2609 -0.43772,-0.5225 -1.37504,-2.75 -2.08292,-4.95 -1.2907,-4.01127 -3.13415,-8.48414 -5.73028,-13.90364 -0.76502,-1.597 -1.39094,-3.2894 -1.39094,-3.7609 0,-0.47149 -0.84984,-2.76485 -1.88853,-5.09636 -1.9032,-4.272 -8.60449,-21.55427 -12.30701,-31.7391 -1.09969,-3.025 -2.37603,-6.4 -2.83632,-7.5 -0.46028,-1.1 -1.78766,-4.925 -2.94974,-8.5 -1.16207,-3.575 -2.54161,-7.28139 -3.06563,-8.23643 -0.52402,-0.95504 -0.95277,-2.35795 -0.95277,-3.11758 0,-0.75963 -1.35153,-5.60323 -3.00339,-10.76357 -7.38892,-23.08255 -11.08397,-37.70019 -13.87321,-54.88242 -5.01405,-30.88754 -5.01385,-44.83673 9.7e-4,-65 1.75797,-7.06832 6.92614,-22.12694 8.99541,-26.21016 1.03412,-2.04059 1.88022,-4.53809 1.88022,-5.55 0,-1.01191 0.37175,-2.26734 0.82612,-2.78984 2.16933,-2.49463 3.66748,-10.62522 3.58388,-19.45 -0.099,-10.45416 -2.26365,-18.27176 -7.53441,-27.21101 -1.58158,-2.68235 -2.87559,-5.3072 -2.87559,-5.833 0,-0.52579 -0.45,-0.95599 -1,-0.95599 -0.55,0 -1,-0.675 -1,-1.5 0,-0.825 -0.37396,-1.5 -0.83102,-1.5 -0.45706,0 -1.46956,-1.2375 -2.25,-2.75 -1.42481,-2.76129 -2.41547,-4.19291 -4.59283,-6.63712 -2.77189,-3.11163 -11.0196,-16.6098 -13.22285,-21.64049 -4.47765,-10.22384 -4.93729,-11.46951 -6.44719,-17.47239 -4.9716,-19.76553 -4.11965,-41.11323 2.63394,-66 2.79597,-10.30304 2.92169,-33.03845 0.24331,-44 -0.94072,-3.85 -1.94745,-8.24301 -2.23718,-9.76224 -0.28972,-1.51923 -0.92489,-3.00829 -1.41148,-3.30902 -0.48658,-0.30072 -0.8847,-1.66362 -0.8847,-3.02866 0,-1.36504 -0.83754,-5.27598 -1.8612,-8.69098 -3.7894,-12.641738 -5.69676,-20.487998 -8.07285,-33.209098 -0.5136503,-2.75 -1.6719503,-8.6 -2.5740003,-13 -3.40506,-16.60925 -1.71767,-44.76578 3.1339703,-52.29463 3.64083,-5.6499003 10.46766,-4.6452703 21.7638,3.20274 3.23934,2.25054 7.37586,4.99189 9.19227,6.09189 1.8164,1.1 4.34252,2.9 5.6136,4 1.27108,1.1 4.33456,3.56337 6.80773,5.47416 2.47317,1.91079 4.72168,3.73247 4.99668,4.04818 0.275,0.31571 2.075,1.65566 4,2.97766 1.925,1.322 3.725,2.672 4,3 0.275,0.328 2.075,1.678 4,3 1.925,1.322 3.725,2.672 4,3 0.275,0.328 2.075,1.678 4,3 1.925,1.322 3.725,2.68009 4,3.01798 1.03749,1.27473 16.08128,10.98202 17.019286,10.98202 0.53939,0 0.98071,0.38166 0.98071,0.84813 0,0.46646 1.75495,1.63949 3.89988,2.60672 3.09568,1.39596 5.62178,1.65322 12.25,1.24753 4.59257,-0.28109 16.33762,-1.01528 26.10012,-1.63153 17.21084,-1.08641 21.35401,-0.97859 61.82976,1.60901 7.94,0.5076 9.00258,0.34147 14.25,-2.22794 3.11863,-1.52705 5.67024,-3.15343 5.67024,-3.61418 0,-0.46076 0.5625,-0.84671 1.25,-0.85767 1.02815,-0.0164 11.72218,-7.40871 17.7504,-12.27009 0.82522,-0.66549 2.62522,-1.94559 4,-2.84467 1.37478,-0.89908 3.6246,-2.6376 4.9996,-3.86338 1.375,-1.22578 4.075,-3.41517 6,-4.86531 1.925,-1.45014 4.13436,-3.23884 4.9097,-3.97489 0.77533,-0.73604 3.19689,-2.46648 5.38125,-3.8454 2.18436,-1.37893 6.5,-4.50303 9.59031,-6.94246 7.40653,-5.84656 7.02614,-5.5753 11.61874,-8.28534 9.24268,-5.4539903 10.73887,-6.0885303 14.3561,-6.0885303 4.19816,0 6.63063,2.0281403 9.59488,8.0000003 2.29562,4.62485 3.25477,30.02628 1.56701,41.5 -3.42647,23.29383 -3.83821,25.43352 -7.02371,36.5 -2.8031,9.738018 -5.735,20.860718 -7.6443,28.999998 -0.83862,3.575 -2.14966,8.75 -2.91343,11.5 -2.88082,10.37257 -4.62048,21.15528 -4.11422,25.5006 0.2884,2.47533 1.62264,7.87533 2.96497,12 1.34234,4.12467 2.98678,10.8744 3.65431,14.9994 0.66753,4.125 1.62875,9.38677 2.13604,11.69282 0.50729,2.30605 0.92235,10.12884 0.92235,17.38398 0,14.75222 0.94023,19.16867 5.12268,24.06219 1.57995,1.84856 2.87368,3.73379 2.87497,4.18941 0.001,0.45562 1.71484,2.48062 3.80788,4.5 2.09304,2.01938 4.87591,5.5841 6.18414,7.9216 1.30824,2.3375 2.71542,4.25 3.12708,4.25 0.41166,0 1.03328,0.89734 1.38137,1.99408 0.34809,1.09674 1.19066,2.55924 1.87237,3.25 2.37221,2.40368 9.41558,13.34135 12.9227,20.06771 1.94153,3.72366 3.97186,7.31432 4.51186,7.97925 0.54,0.66493 1.87656,2.78396 2.97014,4.70896 2.12621,3.74274 7.68598,13.16679 11.30082,19.15538 4.4053,7.29812 9.25289,11.83546 14.92399,13.96884 5.34986,2.01253 7.64009,2.66086 17,4.81242 2.475,0.56893 6.3,1.51723 8.5,2.10735 2.2,0.59011 8.05,1.9373 13,2.99375 19.02627,4.06066 45.90624,12.03517 48.15821,14.28713 0.37132,0.37132 1.28003,0.67513 2.01936,0.67513 1.98485,0 27.04412,11.5369 28.32243,13.03921 0.275,0.32319 5,3.23281 10.5,6.46583 13.43197,7.89559 20.04967,12.48367 25.86809,17.93446 2.67745,2.50827 5.17253,4.5605 5.54463,4.5605 0.37209,0 3.80645,3.17646 7.63191,7.0588 3.82545,3.88234 8.47722,8.49484 10.33725,10.25 1.86003,1.75516 5.77256,6.1162 8.69449,9.6912 2.92194,3.575 6.87486,8.25141 8.78423,10.39202 1.9094,2.14061 6.0812,7.76561 9.2705,12.5 3.1894,4.73439 6.0397,8.83298 6.3339,9.10798 1.5153,1.41625 9.4743,13.61862 12.1908,18.69041 4.9281,9.2011 8.4779,15.07511 9.8563,16.30959 0.7196,0.64452 27.1521,53.91219 30.0213,60.5 1.1977,2.75 2.8052,6.4625 3.5721,8.25 0.767,1.7875 2.1186,4.9375 3.0036,7 0.8849,2.0625 2.2662,5.1 3.0695,6.75 0.8033,1.65 3.0214,7.725 4.9291,13.5 1.9078,5.775 3.8774,11.4 4.3768,12.5 1.3301,2.92948 6.6835,19.12808 8.4273,25.5 0.8278,3.025 2.8835,10.45 4.5681,16.5 3.8937,13.98334 9.5899,41.36893 13,62.5 1.2532,7.76545 4.1211,34.169 5.9861,55.1116 2.2073,24.7866 0.3457,104.7097 -2.874,123.3884 -0.5689,3.3 -1.4898,9.825 -2.0466,14.5 -0.5568,4.675 -1.5143,11.425 -2.1278,15 -4.7269,27.5428 -4.7548,35.5107 -0.1559,44.4807 1.9632,3.8289 13.3151,15.0915 16.1033,15.9765 1.1742,0.3726 2.135,1.0973 2.135,1.6102 0,0.5129 0.4104,0.9326 0.912,0.9326 0.5016,0 5.5253,2.925 11.1638,6.5 5.6385,3.575 10.853,6.5 11.588,6.5 0.7349,0 1.3362,0.3975 1.3362,0.8834 0,0.4858 0.7875,1.1331 1.75,1.4383 1.7134,0.5434 7.2609,3.6892 8.25,4.6783 0.275,0.275 2.525,1.5904 5,2.92301 2.475,1.3327 7.7422,4.5952 11.7048,7.25 3.9627,2.6549 7.6752,4.827 8.25,4.827 0.5749,0 1.0452,0.359 1.0452,0.7979 0,0.4388 2.6697,2.4986 5.9327,4.5774 3.2629,2.0787 7.221,4.9822 8.7955,6.4521 1.5746,1.4699 4.2653,3.8054 5.9793,5.1899 4.4003,3.5545 19.3056,17.9941 22.2925,21.596 11.0251,13.2952 22.9658,36.4154 26.0229,50.3867 5.2937,24.1925 5.3205,34.4253 0.1503,57.5 -1.1506,5.1354 -3.6891,11.3422 -7.9752,19.5 -5.6647,10.782 -6.6048,12.3325 -8.948,14.76 -1.2375,1.282 -2.25,2.7515 -2.25,3.2656 0,2.5881 -22.3263,22.8235 -33.275,30.1586 -17.014,11.3987 -45.936,25.0378 -62.225,29.3442 -13.236,3.4992 -20.5042,5.2915 -26,6.4114 -3.3,0.6725 -7.8,1.6069 -10,2.0765 -2.2,0.4695 -7.6,1.3615 -12,1.982 -4.4,0.6206 -10.7,1.5383 -14,2.0395 -3.3,0.5011 -16.125,1.456 -28.5,2.1218 -19.5121,1.05 -25.8199,0.9843 -47.5,-0.4948 -24.79559,-1.6917 -33.20449,-2.5464 -45.25,-4.5995 -12.45517,-2.1229 -18.83592,-3.2533 -23.25,-4.1188 -2.475,-0.4853 -6.75,-1.3236 -9.5,-1.863 -12.93002,-2.5359 -15.39375,-3.0819 -21,-4.6535 -3.3,-0.9251 -7.8,-2.0507 -10,-2.5013 -3.72385,-0.7628 -6.08679,-1.3254 -16.5,-3.9287 -6.4182,-1.6046 -12.17172,-2.9432 -17,-3.9553 -2.475,-0.5188 -6.525,-1.4215 -9,-2.006 -2.475,-0.5845 -6.975,-1.5093 -10,-2.0552 -3.025,-0.5459 -7.525,-1.411 -10,-1.9225 -26.8409,-5.5476 -35.67262,-7.2326 -42.5,-8.1089 -4.4,-0.5647 -11.375,-1.4825 -15.5,-2.0395 -19.08319,-2.577 -26.9643,-3.0236 -63,-3.57 -54.17373,-0.8215 -80.92013,1.9543 -103.11152,10.7014 -4.88907,1.927 -17.11194,8.3586 -19.75399,10.3943 -6.82583,5.2594 -12.12967,14.6495 -14.67703,25.9848 -3.26294,14.5195 -5.64155,20.4215 -10.19474,25.2957 -8.13105,8.7043 -25.93728,13.18 -39.435746,9.9124 z"
       id="path194" />
  </g>
</svg>
