<?xml version="1.0" encoding="UTF-8" standalone="no"?>
<!-- Created with Inkscape (http://www.inkscape.org/) -->

<svg
   version="1.1"
   id="svg59"
   width="813.18536"
   height="1119.334"
   viewBox="0 0 813.18539 1119.334"
   sodipodi:docname="rubberboots.svg"
   inkscape:version="1.2.2 (732a01da63, 2022-12-09)"
   xmlns:inkscape="http://www.inkscape.org/namespaces/inkscape"
   xmlns:sodipodi="http://sodipodi.sourceforge.net/DTD/sodipodi-0.dtd"
   xmlns="http://www.w3.org/2000/svg"
   xmlns:svg="http://www.w3.org/2000/svg">
  <defs
     id="defs63" />
  <sodipodi:namedview
     id="namedview61"
     pagecolor="#505050"
     bordercolor="#eeeeee"
     borderopacity="1"
     inkscape:showpageshadow="0"
     inkscape:pageopacity="0"
     inkscape:pagecheckerboard="0"
     inkscape:deskcolor="#505050"
     showgrid="false"
     inkscape:zoom="0.68625004"
     inkscape:cx="407.28595"
     inkscape:cy="613.47902"
     inkscape:window-width="2560"
     inkscape:window-height="1369"
     inkscape:window-x="-8"
     inkscape:window-y="-8"
     inkscape:window-maximized="1"
     inkscape:current-layer="g65" />
  <g
     inkscape:groupmode="layer"
     inkscape:label="Image"
     id="g65"
     transform="translate(-260.09043,-106.76814)">
    <path
       style="fill:#000000;stroke-width:1.33333"
       d="m 620.09578,1225.2798 c -53.65975,-5.174 -111.82838,-23.1607 -137.42913,-42.4954 -17.23746,-13.0184 -23.24143,-26.3998 -24.91865,-55.5378 -1.14556,-19.9016 2.93836,-25.4439 9.02407,-12.2466 4.1977,9.1031 21.7727,26.7563 33.22792,33.3759 24.9505,14.418 62.5041,23.0464 114.66666,26.3462 66.11117,4.1822 150.4263,-8.9159 204,-31.6908 25.62992,-10.8956 47.70797,-26.3818 58.66278,-41.1478 l 6.00388,-8.0926 18,-0.8076 c 29.18744,-1.3094 49.73679,-6.3748 73.00585,-17.9959 26.13674,-13.0533 44.83424,-30.7648 55.58364,-52.6523 l 5.7288,-11.6648 0.8262,4.9982 c 1.4985,9.0658 0.8894,33.3292 -1.0705,42.6466 -5.7005,27.099 -18.7576,48.1416 -38.70452,62.3754 -4.60596,3.2868 -15.19834,9.2374 -23.53863,13.2236 -32.99407,15.7695 -53.97256,18.7283 -62.79303,8.8565 -2.03746,-2.2803 -3.70448,-5.3251 -3.70448,-6.7662 0,-1.6132 -1.15305,-2.8995 -3,-3.3467 -2.43489,-0.5896 -5.5116,1.7304 -16.33333,12.3161 -21.59142,21.1206 -46.17069,35.7041 -86.89664,51.5582 -37.55114,14.6181 -66.21077,22.3174 -99.92227,26.8437 -18.99062,2.5498 -62.93184,3.5902 -80.41862,1.9041 z m -26.76246,-61.3831 c -39.35636,-4.3373 -75.45455,-15.2779 -95.64203,-28.9869 -10.62302,-7.214 -18.48837,-16.1511 -23.47194,-26.6703 -3.81787,-8.0587 -4.21936,-10.1141 -4.21936,-21.6009 0,-11.6856 0.35228,-13.4102 4.43185,-21.6971 5.18175,-10.5256 16.35876,-23.1163 26.83108,-30.2248 9.73404,-6.6074 26.58975,-14.9777 52.50957,-26.0755 46.47867,-19.9004 86.00067,-46.98808 123.56083,-84.68645 35.61944,-35.75052 51.21174,-60.7362 58.22945,-93.30903 1.96582,-9.12444 2.41176,-16.85684 2.30557,-39.97905 -0.13253,-28.8614 -2.53544,-52.34699 -10.95042,-107.02732 -1.32836,-8.6317 -2.07832,-15.52676 -1.66658,-15.32238 0.41175,0.2044 4.94864,2.54415 10.08197,5.19944 11.92578,6.16879 27.0398,9.83599 51.33334,12.45528 38.57032,4.15859 52.6196,9.22415 66.37953,23.93358 16.8625,18.02606 26.73494,43.04637 31.60352,80.09473 2.66553,20.28384 2.71584,67.41888 0.10586,99.13212 -1.04708,12.72267 -1.59904,23.92627 -1.22657,24.89691 0.98576,2.56885 4.53183,3.58036 6.58323,1.87785 0.97581,-0.80985 4.85182,-7.2702 8.61336,-14.35633 9.23292,-17.39338 27.36342,-44.50554 39.209,-58.63268 10.10746,-12.05434 30.37194,-32.22164 40.73206,-40.5368 6.75467,-5.42138 29.13566,-19.7144 30.87016,-19.7144 0.6214,0 1.1298,4.99524 1.1298,11.10052 v 11.10053 l -8.9929,7.2328 C 979.14722,830.21797 947.89127,865.41255 927.16339,896 c -20.39961,30.10305 -31.65523,53.66861 -39.86745,83.46943 -7.18279,26.06507 -8.95243,40.81217 -8.78292,73.19097 0.1428,27.2751 0.0613,28.1679 -3.17526,34.7832 -6.81514,13.9297 -28.74259,31.9359 -51.94563,42.6564 -30.94936,14.2994 -76.72944,26.5537 -119.44305,31.9721 -19.754,2.5059 -93.40974,3.7208 -110.61576,1.8246 z m -195.68249,-32.0602 c -38.68787,-3.1832 -81.02298,-18.0812 -103.07806,-36.2738 -20.92298,-17.2588 -34.73507,-44.8102 -34.47883,-68.776 l 0.094,-8.7867 1.74609,4.7396 c 9.33542,25.3399 31.51799,42.7599 71.23766,55.943 34.37734,11.4099 69.66579,14.6548 108.78733,10.0034 17.6144,-2.0943 17.98468,-1.9782 18.02061,5.6473 0.0133,2.6989 -0.63985,4.3334 -1.73013,4.3334 -3.21076,0 -8.71486,7.2584 -10.29312,13.5739 -0.85775,3.4323 -1.34883,9.2132 -1.09127,12.8465 l 0.46827,6.6058 -7.86226,0.8202 c -9.76912,1.0192 -24.01068,0.7888 -41.82024,-0.6766 z m 496.34915,-48.9038 -5.33334,-0.4006 -0.34621,-28.6749 c -0.39943,-33.083 1.32776,-48.1399 8.3014,-72.36816 12.75863,-44.32696 40.22393,-90.65277 77.50152,-130.72207 9.69303,-10.41894 33.42295,-32.1003 35.13335,-32.1003 0.5516,0 1.378,7.05 1.8365,15.66666 0.8342,15.67764 4.1505,33.62442 13.4893,73 7.0251,29.62042 9.207,46.52059 8.3488,64.66667 -0.8854,18.71807 -3.4143,29.0128 -10.9724,44.6667 -10.4704,21.6855 -25.52266,36.7176 -48.62559,48.5606 -23.93405,12.2691 -56.10917,19.4498 -79.33333,17.7054 z m -512.66666,-2.9876 c -43.93037,-5.3722 -75.42273,-18.2394 -96.36482,-39.3729 -19.18797,-19.3633 -21.54713,-43.80267 -6.99956,-72.51092 9.25101,-18.25599 25.35369,-29.56155 69.36438,-48.70013 56.38988,-24.52184 103.42986,-59.70182 145.34935,-108.70299 29.68465,-34.69945 43.81769,-59.65577 48.31281,-85.31147 3.57828,-20.42294 0.89953,-56.41652 -9.6264,-129.34669 -1.85221,-12.83333 -3.72171,-25.01084 -4.15441,-27.06112 l -0.78675,-3.72779 6.45271,3.95886 c 13.75278,8.4376 26.08549,11.59473 60.45269,15.47573 22.23236,2.51065 32.59026,4.65299 42,8.68692 24.99872,10.71691 42.20886,39.52448 50.77154,84.98505 3.256,17.2866 4.01012,75.03188 1.40572,107.64048 -2.09966,26.28907 -1.82801,28.70854 3.22335,28.70854 1.68941,0 4.86817,-4.4737 10.65812,-15 C 710.85808,782.45719 725.13296,760 726.60612,760 c 1.0482,0 2.70556,17.38255 2.71921,28.51937 0.007,5.69736 -0.94688,7.96696 -7.56504,18 -15.56141,23.59092 -30.26805,59.42138 -36.12964,88.0243 l -2.29733,11.21034 -15.33334,14.37659 c -38.37028,35.97612 -77.27225,62.0618 -122.80429,82.3463 -40.86378,18.2048 -52.93889,25.3531 -65.72761,38.9098 -8.89324,9.4273 -15.33304,20.2085 -18.01074,30.1527 l -1.4735,5.4722 -10.32525,1.6101 c -13.35421,2.0826 -55.44999,2.8979 -68.32527,1.3234 z M 699.55205,878.33333 c 1.83484,-6.05 5.44973,-16.4 8.03311,-23 6.31129,-16.12413 20.95196,-44.0681 21.55893,-41.14854 0.89497,4.30484 -2.76483,22.45598 -6.74968,33.47572 -4.73508,13.0944 -21.89125,41.31825 -25.28643,41.59905 -0.49058,0.0405 0.60924,-4.87623 2.44407,-10.92623 z m 195.78126,-34.26316 c 0,-35.14308 -0.44887,-46.1713 -2.35849,-57.94657 -8.71578,-53.74359 -26.32555,-86.11416 -54.36995,-99.94367 -11.9652,-5.9004 -22.74526,-8.12464 -52.45086,-10.82217 -33.47166,-3.03952 -45.42246,-6.91123 -58.18681,-18.85079 -5.2713,-4.93066 -6.50023,-6.9993 -7.26039,-12.22114 -0.50327,-3.4572 -8.36819,-48.46786 -17.4776,-100.02367 -9.10941,-51.55581 -16.56256,-94.52016 -16.56256,-95.47633 0,-1.10794 4.497,0.51689 12.39848,4.47973 42.99637,21.56403 119.40633,26.99663 205.60151,14.61787 68.74067,-9.87206 119.64826,-28.45444 146.98526,-53.65283 l 5.683,-5.23832 -0.693,3.8372 c -0.381,2.11045 -8.2034,63.83719 -17.3829,137.17052 -9.1796,73.33333 -18.7194,148.63333 -21.1997,167.33333 -2.4803,18.7 -4.9081,38.23884 -5.395,43.41966 l -0.8854,9.41966 -8.2228,4.46486 c -37.96638,20.61516 -73.73231,56.54108 -101.64462,102.09933 l -6.57817,10.73685 z M 698.38357,752.43824 c 0.93207,-48.42991 -2.28011,-77.35732 -11.89321,-107.10491 -7.14139,-22.09884 -13.78642,-33.9537 -25.82371,-46.07 C 643.24238,581.72472 631.74862,577.49603 591.99999,574 c -35.83136,-3.15149 -48.60475,-7.13128 -61.33092,-19.10881 l -6.61358,-6.22452 -6.08058,-36 c -3.34432,-19.8 -11.33235,-65.80979 -17.75118,-102.24398 l -11.6706,-66.24397 5.3901,3.31731 c 29.58072,18.20537 83.5596,26.92688 152.69493,24.6713 l 15.30484,-0.49932 3.05182,15.16599 c 1.67851,8.34131 4.2213,21.766 5.65063,29.83267 1.42933,8.06666 9.53501,53.36666 18.01261,100.66666 18.3272,102.25492 26.94087,153.79252 32.65976,195.41088 l 4.22466,30.74422 -12.43792,18.71037 c -6.84084,10.29069 -13.09674,19.84539 -13.90196,21.23265 -1.07944,1.85964 -1.2946,-6.28273 -0.81903,-30.99321 z M 802.66665,464.432 c -53.43242,-2.3892 -99.01629,-14.41216 -114.364,-30.16403 -5.41335,-5.5559 -5.49116,-5.7796 -9.60183,-27.6013 -5.94101,-31.53827 -16.72033,-84.59838 -18.24321,-89.8004 -0.63711,-2.17635 -0.0372,-2.06563 5.09075,0.93956 13.53778,7.93366 38.41452,14.93957 67.11829,18.90216 21.84952,3.01636 80.94721,4.1096 110.43324,2.04288 85.61218,-6.00067 165.09981,-25.62912 208.50211,-51.48688 6.7477,-4.02012 12.6159,-7.87118 13.0403,-8.5579 0.4244,-0.68673 2.5334,-2.50308 4.6867,-4.03633 l 3.915,-2.78775 -0.6753,9.059 c -3.0855,41.39146 -11.2844,102.01795 -14.6985,108.68736 -14.5685,28.45947 -57.1491,50.0997 -125.20356,63.63067 -34.02264,6.76457 -92.18646,12.71444 -115.33333,11.79803 -3.3,-0.13067 -9.9,-0.41194 -14.66666,-0.62507 z M 583.33332,361.20725 c -48.58681,-4.7924 -88.90256,-18.69988 -96.75808,-33.37806 -0.72756,-1.35947 -4.27968,-17.92718 -7.89359,-36.81714 -3.6139,-18.88996 -8.6532,-43.93788 -11.19842,-55.66205 -2.54523,-11.72416 -4.51383,-21.43053 -4.37465,-21.56969 0.13917,-0.13918 5.04666,2.09357 10.90555,4.96164 38.93148,19.05794 119.25466,24.9576 205.98585,15.12946 15.29694,-1.73341 26.77647,-3.4956 60,-9.21042 2.56667,-0.4415 -2.40937,1.64153 -11.05786,4.62894 -42.56942,14.7046 -69.27896,30.7675 -79.14003,47.59412 -5.27301,8.99774 -4.82741,16.39331 3.15669,52.39046 3.81514,17.20098 6.61128,31.60098 6.21364,32 -1.23334,1.23762 -63.16663,1.1827 -75.8391,-0.0672 z M 754.66665,329.2724 c -60.54533,-5.24125 -98.62021,-19.97816 -98.65788,-38.1856 -0.0199,-9.61968 5.85796,-17.05705 21.93423,-27.75383 61.33701,-40.81225 219.28624,-65.20866 323.5555,-49.9755 39.7408,5.8059 68.0127,18.26218 71.3153,31.42073 3.3004,13.14981 -11.1009,27.54923 -42.6275,42.62203 -39.38487,18.8298 -97.01823,32.70614 -166.18632,40.01257 -23.04623,2.43444 -89.61385,3.56665 -109.33333,1.8596 z m -180,-100.72161 c -60.92288,-4.04478 -97.51605,-13.43228 -111.13901,-28.51127 -8.1043,-8.97051 -6.61469,-18.11683 4.69873,-28.85068 8.36331,-7.93485 16.75972,-13.24205 33.65704,-21.27393 62.73299,-29.81918 181.95257,-48.33779 269.4499,-41.85419 64.9172,4.81041 104.66667,19.70079 104.66667,39.20875 0,12.73485 -19.33213,28.48684 -52.13557,42.48054 -41.61424,17.75231 -104.71976,31.54812 -168.53109,36.8434 -17.7112,1.46975 -69.19509,2.719 -80.66667,1.95738 z m 228,-20.3432 c 29.26833,-10.01434 51.58068,-20.93984 64.87075,-31.76476 4.0465,-3.29592 7.49186,-5.79388 7.65636,-5.55104 0.58787,0.86785 -1.42218,29.1144 -2.12158,29.81378 -0.39248,0.39248 -8.74428,1.59936 -18.55957,2.68194 -15.03292,1.65806 -29.27474,3.77497 -62.51263,9.29188 -2.56667,0.42602 2.23333,-1.5863 10.66667,-4.4718 z"
       id="path123"
       sodipodi:nodetypes="sssssssscssscssssssssssssssssssssssssssssssssssscssssssssssscssscssscsssscsssssssssssssssssscssssssssssscsssscsssssssssssssssssssccssscsscsssssscsscsscsssscssssssssssssscsssssssssssssssssssssssssssssssssssssssssss" />
  </g>
</svg>
